<svg width="24" height="24" viewBox="0 0 24 24" fill="none" xmlns="http://www.w3.org/2000/svg">
<path opacity="0.3" fill-rule="evenodd" clip-rule="evenodd" d="M16.993 6.41048L17.6062 3.78253C17.7308 3.24852 18.2069 2.87073 18.7552 2.87073H20.8201C21.4717 2.87073 22 3.39899 22 4.05065C22 4.7023 21.4717 5.23056 20.8201 5.23056H19.6915L18.1446 11.8439L17.4472 16.0287C17.3554 16.5792 16.8309 16.948 16.2819 16.8482L4.91304 14.7811C4.53843 14.713 4.235 14.4381 4.1304 14.072L2.3056 7.6852C2.12308 7.04639 2.60275 6.41048 3.26712 6.41048H16.993Z" fill="#00549E"/>
<path fill-rule="evenodd" clip-rule="evenodd" d="M8 19.5C8 20.3284 7.32843 21 6.5 21C5.67157 21 5 20.3284 5 19.5C5 18.6716 5.67157 18 6.5 18C7.32843 18 8 18.6716 8 19.5ZM17 19.5C17 20.3284 16.3284 21 15.5 21C14.6716 21 14 20.3284 14 19.5C14 18.6716 14.6716 18 15.5 18C16.3284 18 17 18.6716 17 19.5Z" fill="black"/>
</svg>
