<svg width="24" height="24" viewBox="0 0 24 24" fill="none" xmlns="http://www.w3.org/2000/svg">
<path opacity="0.3" fill-rule="evenodd" clip-rule="evenodd" d="M20.4061 6.7361C20.7673 6.89661 21 7.25473 21 7.64992V16.4116C21 16.7748 20.8031 17.1094 20.4856 17.2858L12.4856 21.7302C12.1836 21.898 11.8164 21.898 11.5144 21.7302L3.51436 17.2858C3.19689 17.1094 3 16.7748 3 16.4116L3 7.64992C3 7.25473 3.23273 6.89661 3.59386 6.7361L11.5939 3.18055C11.8524 3.06563 12.1476 3.06563 12.4061 3.18055L20.4061 6.7361Z" fill="#EA7D2A"/>
<path fill-rule="evenodd" clip-rule="evenodd" d="M14.9672 4.22437L7.6 8.31723V12.9056L9.6 13.9056V9.49403L17.2551 5.24122L14.9672 4.22437Z" fill="#EA7D2A"/>
</svg>
