<svg id="wave" style="transform:rotate(0deg); transition: 0.3s" viewBox="0 0 1440 200" version="1.1" xmlns="http://www.w3.org/2000/svg"><defs><linearGradient id="sw-gradient-0" x1="0" x2="0" y1="0" y2="0"><stop stop-color="rgba(0, 84, 158, 1)" offset="0%"></stop><stop stop-color="rgba(0, 143, 201, 1)" offset="100%"></stop></linearGradient></defs><path style="transform:translate(0, 0px); opacity:1" fill="url(#sw-gradient-0)" d="M0,60L80,73.3C160,87,320,113,480,106.7C640,100,800,60,960,50C1120,40,1280,60,1440,73.3C1600,87,1760,93,1920,93.3C2080,93,2240,87,2400,80C2560,73,2720,67,2880,66.7C3040,67,3200,73,3360,66.7C3520,60,3680,40,3840,33.3C4000,27,4160,33,4320,33.3C4480,33,4640,27,4800,30C4960,33,5120,47,5280,60C5440,73,5600,87,5760,100C5920,113,6080,127,6240,136.7C6400,147,6560,153,6720,153.3C6880,153,7040,147,7200,146.7C7360,147,7520,153,7680,150C7840,147,8000,133,8160,120C8320,107,8480,93,8640,83.3C8800,73,8960,67,9120,70C9280,73,9440,87,9600,90C9760,93,9920,87,10080,86.7C10240,87,10400,93,10560,80C10720,67,10880,33,11040,46.7C11200,60,11360,120,11440,150L11520,180L11520,200L11440,200C11360,200,11200,200,11040,200C10880,200,10720,200,10560,200C10400,200,10240,200,10080,200C9920,200,9760,200,9600,200C9440,200,9280,200,9120,200C8960,200,8800,200,8640,200C8480,200,8320,200,8160,200C8000,200,7840,200,7680,200C7520,200,7360,200,7200,200C7040,200,6880,200,6720,200C6560,200,6400,200,6240,200C6080,200,5920,200,5760,200C5600,200,5440,200,5280,200C5120,200,4960,200,4800,200C4640,200,4480,200,4320,200C4160,200,4000,200,3840,200C3680,200,3520,200,3360,200C3200,200,3040,200,2880,200C2720,200,2560,200,2400,200C2240,200,2080,200,1920,200C1760,200,1600,200,1440,200C1280,200,1120,200,960,200C800,200,640,200,480,200C320,200,160,200,80,200L0,200Z"></path></svg>